<svg xmlns="http://www.w3.org/2000/svg" width="60" height="60" viewBox="0 0 60 60" fill="none">
  <path d="M10.0195 0V60H49.9805V0H10.0195ZM38.4718 3.51562L37.8859 7.03125H22.1141L21.5282 3.51562H38.4718ZM46.4648 56.4844H13.5352V3.51562H17.964L19.1359 10.5469H40.8641L42.036 3.51562H46.4648V56.4844Z" fill="#F79C1B"/>
  <path d="M23.2031 49.4531H36.7969V52.9688H23.2031V49.4531Z" fill="#F79C1B"/>
  <path d="M30.0003 35.93C28.5166 35.93 27.3096 34.9722 27.3096 33.7951H23.7939C23.7939 36.3552 25.6736 38.523 28.2425 39.2149V41.1701H31.7581V39.2149C34.327 38.5231 36.2068 36.3552 36.2068 33.7951C36.2068 30.6794 33.4225 28.1447 30.0003 28.1447C28.5166 28.1447 27.3096 27.1869 27.3096 26.0097C27.3096 24.8326 28.5166 23.8748 30.0003 23.8748C31.484 23.8748 32.6912 24.8326 32.6912 26.0097H36.2068C36.2068 23.4497 34.327 21.2818 31.7581 20.5899V18.6348H28.2425V20.5899C25.6736 21.2817 23.7939 23.4497 23.7939 26.0097C23.7939 29.1254 26.5781 31.6603 30.0003 31.6603C31.484 31.6603 32.6912 32.6179 32.6912 33.7951C32.6912 34.9722 31.484 35.93 30.0003 35.93Z" fill="#F79C1B"/>
</svg>