<svg xmlns="http://www.w3.org/2000/svg" width="60" height="60" viewBox="0 0 60 60" fill="none">
  <g clip-path="url(#clip0_1144_277)">
    <path d="M52.0067 7.98417C37.4063 7.98417 30.8603 0.448909 30.7673 0.339876C30.3872 -0.11526 29.611 -0.11426 29.2318 0.340876C29.1678 0.416899 22.6929 7.98317 7.99346 7.98317C7.4413 7.98317 6.99316 8.4313 6.99316 8.98347V28.0742C6.99316 38.5103 11.6846 48.4283 19.5429 54.6032C22.7109 57.0929 26.1329 58.8944 29.715 59.9568C29.808 59.9848 29.904 59.9988 30.0001 59.9988C30.0961 59.9988 30.1911 59.9848 30.2852 59.9568C33.8672 58.8934 37.2893 57.0929 40.4572 54.6032C48.3156 48.4273 53.007 38.5103 53.007 28.0742V8.98447C53.007 8.43231 52.5598 7.98417 52.0067 7.98417ZM51.0064 28.0752C51.0064 37.9021 46.601 47.2319 39.2208 53.0317C36.337 55.2984 33.236 56.9529 30.0001 57.9542C26.7641 56.9539 23.6632 55.2984 20.7793 53.0317C13.3991 47.2329 8.99376 37.9021 8.99376 28.0752V9.97377C21.2394 9.70168 27.8644 4.47512 30.0001 2.4265C32.1357 4.47612 38.7607 9.70168 51.0064 9.97377V28.0752Z" fill="#F79C1B"/>
    <path d="M29.438 7.98863C26.4221 10.0382 21.2726 12.679 13.8694 13.6233C13.3692 13.6873 12.9951 14.1125 12.9951 14.6156V28.0766C12.9951 36.6862 16.8293 44.8397 23.2522 49.8872C25.2748 51.4767 27.4224 52.723 29.6351 53.5913C29.7531 53.6373 29.8772 53.6603 30.0002 53.6603C30.1983 53.6603 30.3953 53.6013 30.5634 53.4863C30.8365 53.2992 31.0005 52.9901 31.0005 52.66V8.81587C31.0005 8.44476 30.7955 8.10566 30.4684 7.93161C30.1423 7.75956 29.7451 7.78156 29.438 7.98863ZM28.9999 51.1356C27.4485 50.3973 25.936 49.4511 24.4886 48.3137C18.5448 43.6423 14.9957 36.077 14.9957 28.0756V15.4869C21.2026 14.5686 25.853 12.514 28.9999 10.6374V51.1356Z" fill="#F79C1B"/>
  </g>
  <defs>
    <clipPath id="clip0_1144_277">
      <rect width="60" height="60" fill="white"/>
    </clipPath>
  </defs>
</svg>